<?xml version="1.0" encoding="UTF-8"?>
<!-- Generator: visioncortex VTracer 0.6.3 -->
<svg version="1.1" xmlns="http://www.w3.org/2000/svg" width="1280" height="1280">
<path d="M0 0 C0.99 0.5 0.99 0.5 2 1 C2.33 0.67 2.66 0.34 3 0 C5.47 -0.1 7.91 -0.14 10.38 -0.12 C11.06 -0.13 11.75 -0.13 12.45 -0.14 C15.57 -0.13 18.02 0.01 21 1 C23.21 1.45 25.42 1.88 27.62 2.31 C36.14 4.13 43.29 6.07 49 13 C49.67 14.33 50.33 15.67 51 17 C51.99 17.33 52.98 17.66 54 18 C55.36 19.71 55.36 19.71 56.75 21.94 C59.57 26.36 62.58 30.61 65.68 34.84 C67 37 67 37 67 40 C67.59 40.23 68.19 40.46 68.8 40.69 C71.6 42.36 72.62 44.13 74.25 46.94 C74.77 47.81 75.29 48.69 75.83 49.59 C77 52 77 52 77 55 C77.99 55.33 78.98 55.66 80 56 C80 56.66 80 57.32 80 58 C82.31 58.33 84.62 58.66 87 59 C87 58.34 87 57.68 87 57 C90.98 56.94 94.96 56.91 98.94 56.88 C100.05 56.86 101.17 56.84 102.32 56.82 C112.15 56.77 119.89 57.98 128.56 62.62 C129.5 63.11 129.5 63.11 130.46 63.61 C131.98 64.4 133.49 65.2 135 66 C135 66.66 135 67.32 135 68 C135.72 68.1 136.44 68.21 137.19 68.31 C140.24 69.06 142.38 70.28 145 72 C145 71.01 145 70.02 145 69 C145.66 69 146.32 69 147 69 C146.67 67.35 146.34 65.7 146 64 C146.66 64 147.32 64 148 64 C149 60.42 149 60.42 148 57 C148.66 57 149.32 57 150 57 C150.12 56.24 150.25 55.47 150.38 54.69 C151 52 151 52 153 49 C153.37 48.12 153.37 48.12 153.75 47.22 C158.29 39.16 166.92 31.36 175.72 28.62 C176.47 28.42 177.23 28.21 178 28 C179.42 27.47 180.84 26.93 182.25 26.38 C184.63 25.5 187.03 24.66 189.44 23.88 C191.9 23.24 191.9 23.24 193 22 C195.33 21.96 197.67 21.96 200 22 C200.33 21.34 200.66 20.68 201 20 C201 20.66 201 21.32 201 22 C202.49 21.01 202.49 21.01 204 20 C206.34 19.57 208.7 19.22 211.06 18.94 C212.31 18.78 213.56 18.63 214.85 18.46 C216.23 18.31 217.62 18.15 219 18 C219.71 17.91 220.42 17.83 221.14 17.74 C228.03 16.96 234.83 16.85 241.75 16.87 C242.94 16.87 244.12 16.87 245.34 16.86 C247.81 16.86 250.29 16.87 252.77 16.87 C256.58 16.88 260.39 16.87 264.21 16.86 C266.62 16.86 269.03 16.87 271.44 16.87 C272.59 16.87 273.73 16.86 274.91 16.86 C275.96 16.86 277.01 16.87 278.09 16.87 C279.48 16.87 279.48 16.87 280.9 16.87 C283 17 283 17 284 18 C286.85 18.1 289.68 18.14 292.54 18.13 C293.43 18.13 294.33 18.13 295.25 18.13 C298.24 18.14 301.22 18.14 304.2 18.13 C306.28 18.13 308.35 18.13 310.43 18.14 C314.79 18.14 319.16 18.14 323.52 18.13 C329.09 18.12 334.65 18.13 340.22 18.13 C344.51 18.14 348.81 18.14 353.1 18.13 C355.15 18.13 357.2 18.13 359.25 18.14 C373.85 18.15 373.85 18.15 388.4 17.19 C392.75 16.87 396.99 17.23 401.31 17.69 C402.65 17.82 402.65 17.82 404.01 17.96 C422.4 20 440.15 25.78 455 37 C455.99 37.33 456.98 37.66 458 38 C459.67 39.67 461.33 41.33 463 43 C463.97 43.46 463.97 43.46 464.96 43.94 C467.33 45.17 468.5 46.5 470.19 48.56 C474.2 53.31 478.56 57.65 483 62 C487.2 58.39 489.07 55.07 491.01 49.89 C492 48 492 48 495 47 C495.08 46.26 495.16 45.52 495.25 44.76 C496.16 41.41 497.47 40.15 500 37.81 C502.9 35.2 502.9 35.2 505 32 C506.66 31.33 508.33 30.66 510 30 C510.68 29.46 511.36 28.93 512.06 28.38 C514 27 514 27 518 27 C518 26.34 518 25.68 518 25 C521.93 23.33 525.88 22.06 530 21 C531.49 20.59 531.49 20.59 533 20.17 C542.35 17.83 550.54 17.98 560 19 C560 18.34 560 17.68 560 17 C566.35 16.97 572.71 16.96 579.06 16.95 C581.22 16.94 583.39 16.93 585.55 16.92 C588.65 16.91 591.76 16.91 594.86 16.9 C596.32 16.89 596.32 16.89 597.8 16.89 C598.7 16.89 599.6 16.89 600.53 16.89 C601.32 16.88 602.11 16.88 602.93 16.88 C605 17 605 17 608 18 C609.62 18.19 611.24 18.34 612.86 18.46 C613.81 18.54 614.76 18.62 615.74 18.7 C617.73 18.86 619.72 19.01 621.71 19.16 C627.09 19.61 631.86 20.39 637 22 C637.99 22 638.98 22 640 22 C640 22.66 640 23.32 640 24 C640.76 23.98 641.53 23.96 642.31 23.94 C645 24 645 24 648 25 C648 25.66 648 26.32 648 27 C648.58 27.17 649.16 27.34 649.76 27.52 C654.78 29.07 658.74 30.83 663 34 C663.71 34.5 664.42 35 665.14 35.52 C669.42 38.6 669.42 38.6 671 40 C671 40.66 671 41.32 671 42 C671.66 42.33 672.32 42.66 673 43 C672.67 43.66 672.34 44.32 672 45 C672.6 45.22 673.21 45.45 673.83 45.68 C676.66 47.4 677.37 49.14 678.75 52.12 C679.39 53.49 679.39 53.49 680.05 54.88 C680.36 55.58 680.68 56.28 681 57 C683.73 53.53 685.28 50.08 687 46 C690.09 39.98 695.02 34.56 700 30 C700.64 29.86 701.28 29.71 701.94 29.56 C704.18 29.14 704.18 29.14 705.81 27.06 C708.63 24.4 711.27 23.86 715 23 C715 22.67 715 22.34 715 22 C716.58 21.85 716.58 21.85 718.19 21.69 C721.94 21.25 721.94 21.25 724.56 19.44 C727.56 17.67 729.58 17.84 733 18 C733.33 17.67 733.66 17.34 734 17 C754.03 16.12 769.53 19.14 787 29 C787 29.66 787 30.32 787 31 C787.87 31.19 788.73 31.37 789.62 31.56 C793.96 33.41 796.41 36.11 799 40 C799 40.66 799 41.32 799 42 C799.66 42 800.32 42 801 42 C802.96 45.67 804.39 48.87 805 53 C805.99 53.33 806.98 53.66 808 54 C809.45 56.9 810 58.74 810 62 C817 56.11 823.33 49.67 829.64 43.06 C830.4 42.28 831.17 41.5 831.95 40.69 C832.64 39.98 833.32 39.27 834.02 38.54 C836 37 836 37 840 37 C840.21 36.36 840.41 35.72 840.62 35.06 C842 33 842 33 845.12 32.25 C846.07 32.17 847.02 32.08 848 32 C848 31.34 848 30.68 848 30 C849.65 29.67 851.3 29.34 853 29 C853 28.34 853 27.68 853 27 C853.71 26.72 854.42 26.45 855.15 26.16 C856.07 25.8 856.99 25.44 857.94 25.06 C858.85 24.7 859.77 24.34 860.71 23.97 C862.92 23.2 862.92 23.2 864 22 C866 21.96 868 21.96 870 22 C870.33 21.34 870.66 20.68 871 20 C871.66 20 872.32 20 873 20 C874.48 19.71 875.96 19.39 877.44 19.06 C878.22 18.89 879 18.71 879.81 18.54 C882.16 17.99 882.16 17.99 885 17 C889.27 16.79 893.54 16.81 897.81 16.81 C899.9 16.81 901.99 16.79 904.07 16.78 C918.71 16.71 932.58 19.01 946 25 C946.66 25 947.32 25 948 25 C948 25.66 948 26.32 948 27 C948.61 27.11 949.23 27.22 949.86 27.33 C950.67 27.49 951.48 27.65 952.31 27.81 C953.51 28.04 953.51 28.04 954.74 28.27 C957.28 29.09 958.23 30.06 960 32 C961.98 33.03 963.98 34.03 966 35 C966.91 35.56 967.82 36.11 968.75 36.69 C970.85 38.17 970.85 38.17 973 38 C974.14 39.14 975.27 40.29 976.39 41.45 C978.27 43.26 980.28 44.76 982.38 46.31 C986.13 49.18 989.11 52.21 992.12 55.84 C994.3 58.35 996.66 60.62 999.06 62.94 C1003.44 67.27 1006.86 71.72 1010 77 C1010.45 77.74 1010.91 78.47 1011.38 79.23 C1013.54 82.92 1015.56 86.67 1017.56 90.44 C1017.96 91.18 1018.36 91.91 1018.77 92.67 C1020.92 96.72 1022.66 100.6 1024 105 C1024.54 106.31 1025.08 107.63 1025.62 108.94 C1027.11 112.8 1027.26 115.89 1027 120 C1027.66 120 1028.32 120 1029 120 C1032.26 131.4 1032.46 142.39 1032.39 154.16 C1032.37 157.26 1032.39 160.36 1032.41 163.45 C1032.41 165.45 1032.4 167.45 1032.4 169.45 C1032.4 170.36 1032.41 171.27 1032.42 172.21 C1032.35 178.57 1031.12 184.01 1029 190 C1028.34 190 1027.68 190 1027 190 C1026.9 190.7 1026.79 191.4 1026.69 192.12 C1025.89 195.44 1024.73 198.07 1023 201 C1022.01 201.33 1021.02 201.66 1020 202 C1019.94 202.71 1019.89 203.41 1019.83 204.14 C1018.73 207.93 1016.51 210.08 1013.75 212.75 C1013.27 213.24 1012.79 213.74 1012.3 214.25 C1009.34 217.17 1007.18 218.66 1003 219 C1002.12 221.2 1002.12 221.2 1002 224 C1003.72 227.12 1005.55 229.55 1008.06 232.06 C1010.22 234.22 1011.51 236.33 1013 239 C1013.35 239.57 1013.71 240.14 1014.07 240.73 C1016.18 244.19 1017 245.86 1017 250 C1017.99 250.33 1018.98 250.66 1020 251 C1021.71 254.32 1022 256.18 1022 260 C1022.66 260 1023.32 260 1024 260 C1025.46 264.29 1026.91 268.57 1028.12 272.94 C1028.86 275.88 1028.86 275.88 1030 278 C1030.31 280.59 1030.51 283.18 1030.72 285.79 C1030.77 287.97 1030.77 287.97 1032 289 C1032.1 290.62 1032.13 292.25 1032.13 293.87 C1032.13 295.43 1032.13 295.43 1032.14 297.02 C1032.14 298.15 1032.13 299.27 1032.13 300.44 C1032.13 301.59 1032.13 302.74 1032.14 303.92 C1032.14 306.36 1032.13 308.8 1032.13 311.24 C1032.13 314.98 1032.13 318.73 1032.14 322.48 C1032.14 324.84 1032.13 327.2 1032.13 329.56 C1032.14 331.26 1032.14 331.26 1032.14 332.98 C1032.14 334.02 1032.13 335.06 1032.13 336.13 C1032.13 337.51 1032.13 337.51 1032.13 338.91 C1032 341 1032 341 1031 342 C1030.79 343.81 1030.63 345.62 1030.5 347.44 C1030.11 352.78 1030.11 352.78 1029 355 C1028.34 355 1027.68 355 1027 355 C1027.12 356.92 1027.12 356.92 1027.25 358.88 C1027.25 363.6 1026.04 367.07 1024.16 371.36 C1022.89 374.24 1021.81 377.16 1020.75 380.12 C1020.25 381.52 1020.25 381.52 1019.73 382.95 C1019.49 383.62 1019.25 384.3 1019 385 C1018.34 385 1017.68 385 1017 385 C1016.88 385.72 1016.75 386.44 1016.62 387.19 C1016.01 389.96 1015.12 392.4 1014 395 C1013.34 395 1012.68 395 1012 395 C1011.88 395.72 1011.75 396.44 1011.62 397.19 C1011.01 399.96 1010.12 402.4 1009 405 C1008.34 405 1007.68 405 1007 405 C1006.9 405.76 1006.79 406.53 1006.69 407.31 C1005.93 410.29 1005.15 410.94 1003 413 C1002.54 414.21 1002.54 414.21 1002.06 415.44 C1000.84 418.38 999.42 419.96 997 422 C996.34 422 995.68 422 995 422 C994.67 423.65 994.34 425.3 994 427 C993.01 427.33 992.02 427.66 991 428 C990.33 429.33 989.67 430.67 989 432 C987.27 433.97 985.54 435.83 983.69 437.69 C983.21 438.19 982.74 438.68 982.25 439.2 C979.25 442.22 977.2 443.46 973 444 C971.95 445.85 971.95 445.85 971 448 C965.69 452.74 959.5 455.84 953.19 459 C952.51 459.34 951.84 459.69 951.15 460.04 C946.53 462.36 941.9 464.34 937 466 C936.26 466.28 935.52 466.56 934.76 466.84 C926.17 469.69 917.51 469.39 908.56 469.28 C905.85 469.25 903.13 469.24 900.41 469.23 C898.69 469.23 896.97 469.21 895.24 469.2 C894.02 469.2 894.02 469.2 892.78 469.19 C887.12 469.12 887.12 469.12 886 468 C884.57 467.7 883.13 467.43 881.69 467.19 C875.68 466.02 869.57 464.58 864 462 C863.67 461.01 863.34 460.02 863 459 C862.28 458.88 861.56 458.75 860.81 458.62 C857.31 457.85 854.26 456.67 851.08 454.98 C845.86 452.19 845.86 452.19 840 452 C839.69 452.9 839.69 452.9 839.38 453.81 C837.48 456.83 835.2 457.53 832 459 C831.32 459.52 830.64 460.03 829.94 460.56 C826.1 463.41 822.74 464.27 818 464 C818 464.66 818 465.32 818 466 C817.07 466.13 816.15 466.27 815.19 466.4 C813.99 466.58 812.8 466.76 811.56 466.94 C810.37 467.11 809.17 467.29 807.94 467.46 C805.12 467.69 805.12 467.69 804 469 C801.34 469.1 798.72 469.14 796.06 469.12 C795.32 469.13 794.58 469.13 793.81 469.14 C788.25 469.13 788.25 469.13 786 468 C783.73 467.73 781.47 467.56 779.19 467.38 C777 467 777 467 774 465 C772.49 464.44 770.97 463.92 769.44 463.44 C767.19 462.72 765.11 462.06 763 461 C763 460.34 763 459.68 763 459 C761.92 458.91 761.92 458.91 760.81 458.81 C757.14 457.75 755.61 455.74 753 453 C751.68 452.3 750.35 451.63 749 451 C748.67 450.34 748.34 449.68 748 449 C744.44 449.59 742.67 450.93 740.06 453.38 C737.18 455.99 734.44 458.14 731 460 C730.01 460.66 729.02 461.32 728 462 C725.31 462.12 725.31 462.12 723 462 C723 462.66 723 463.32 723 464 C721.35 464 719.7 464 718 464 C718 464.66 718 465.32 718 466 C713.71 466.66 709.42 467.32 705 468 C705 468.33 705 468.66 705 469 C693.84 469.32 683.78 469.25 673 466 C673 465.34 673 464.68 673 464 C672.28 463.88 671.56 463.75 670.81 463.62 C668.04 463.01 665.6 462.12 663 461 C663 460.34 663 459.68 663 459 C659.7 459 656.4 459 653 459 C653 459.66 653 460.32 653 461 C638.01 469.07 622.1 469.31 605.49 469.27 C603.63 469.27 601.76 469.27 599.9 469.27 C596.02 469.27 592.13 469.27 588.25 469.26 C583.3 469.25 578.35 469.26 573.4 469.27 C569.56 469.28 565.72 469.27 561.88 469.27 C560.05 469.27 558.23 469.27 556.4 469.27 C536.35 469.31 536.35 469.31 530 467 C529.34 466.34 528.68 465.68 528 465 C525.67 464.33 523.33 463.66 521 463 C513.91 459.83 507.6 456.36 503 450 C502.34 449.67 501.68 449.34 501 449 C501 448.34 501 447.68 501 447 C500.34 447 499.68 447 499 447 C494.36 442.76 491.57 437.64 489 432 C488.16 430.36 488.16 430.36 487.31 428.69 C486 426 486 426 485 423 C481.55 424.47 479.42 426.39 476.85 429.1 C476.07 429.9 475.29 430.7 474.49 431.53 C472.87 433.22 471.26 434.91 469.64 436.61 C468.86 437.41 468.09 438.21 467.29 439.04 C466.23 440.14 466.23 440.14 465.16 441.27 C462.72 443.22 461.03 443.5 458 444 C457.69 444.66 457.38 445.32 457.06 446 C456.71 446.66 456.36 447.32 456 448 C452.88 448.75 452.88 448.75 450 449 C449.67 449.99 449.34 450.98 449 452 C447.68 452 446.36 452 445 452 C444.81 452.6 444.63 453.2 444.44 453.81 C441.43 458.4 435 459.33 430 461 C428.87 461.52 427.73 462.03 426.56 462.56 C422.98 464.01 419.81 464.48 416 465 C415.34 465.66 414.68 466.32 414 467 C411.91 467.38 411.91 467.38 409.5 467.56 C406.12 467.81 406.12 467.81 403 469 C400.54 469.1 398.11 469.14 395.66 469.13 C394.93 469.13 394.21 469.13 393.46 469.14 C391.93 469.14 390.39 469.13 388.86 469.13 C386.51 469.13 384.16 469.13 381.81 469.14 C380.32 469.14 378.83 469.13 377.34 469.13 C376.64 469.13 375.93 469.14 375.21 469.14 C370.23 469.11 370.23 469.11 368 468 C366.19 467.71 364.38 467.44 362.56 467.19 C356.37 466.21 350.79 464.35 345 462 C344.67 462.99 344.34 463.98 344 465 C338.66 467.14 333.28 467.4 327.57 467.75 C325.01 467.84 325.01 467.84 323 469 C321.4 469.1 319.8 469.13 318.2 469.13 C317.19 469.14 316.18 469.14 315.13 469.15 C313.46 469.15 313.46 469.15 311.75 469.15 C309.99 469.15 309.99 469.15 308.2 469.16 C304.97 469.16 301.75 469.17 298.52 469.17 C296.51 469.17 294.49 469.17 292.47 469.17 C285.42 469.18 278.38 469.19 271.33 469.19 C264.78 469.18 258.23 469.2 251.68 469.21 C246.04 469.22 240.41 469.23 234.78 469.23 C231.42 469.23 228.06 469.23 224.7 469.24 C220.94 469.25 217.18 469.25 213.42 469.24 C212.32 469.25 211.22 469.25 210.09 469.26 C192.19 469.19 192.19 469.19 188 465 C185.67 464.33 183.33 463.66 181 463 C176.24 460.96 172.87 458.35 169 455 C168.01 454.34 167.02 453.68 166 453 C166 452.34 166 451.68 166 451 C165.34 450.67 164.68 450.34 164 450 C160.31 445.69 157.36 441.16 155 436 C154.52 435.09 154.04 434.18 153.55 433.25 C150.2 426.24 148.07 418.42 147.38 410.69 C147.25 409.47 147.13 408.25 147 407 C146.34 406.67 145.68 406.34 145 406 C144.66 404 144.66 404 144.5 401.44 C144.21 396.8 143.18 392.48 142 388 C141.63 386.5 141.26 384.99 140.89 383.49 C140.49 381.95 140.09 380.41 139.69 378.88 C139.41 377.72 139.41 377.72 139.12 376.54 C137.22 369.35 133.46 363.97 127 360 C124.01 359.4 121.05 359.13 118 359 C118 358.34 118 357.68 118 357 C117.01 357.99 116.02 358.98 115 360 C115.66 360.33 116.32 360.66 117 361 C115.75 361.51 114.5 362.01 113.25 362.5 C112.55 362.78 111.86 363.06 111.14 363.34 C109 364 109 364 105 364 C105 364.66 105 365.32 105 366 C104.32 366.33 103.65 366.65 102.95 366.99 C102.06 367.43 101.17 367.86 100.25 368.31 C98.93 368.96 98.93 368.96 97.58 369.61 C94.99 370.91 94.99 370.91 92.86 372.67 C91 374 91 374 88 374 C86.04 377.51 85.04 381.13 84 385 C83.34 385 82.68 385 82 385 C82 388.96 82 392.92 82 397 C81.34 397 80.68 397 80 397 C80.33 397.99 80.66 398.98 81 400 C80.66 402.48 80.66 402.48 80.06 405.19 C79.77 406.54 79.77 406.54 79.47 407.92 C79.32 408.61 79.16 409.29 79 410 C78.34 410 77.68 410 77 410 C77.03 411.92 77.03 411.92 77.06 413.88 C77.13 417.75 77.13 417.75 76 420 C75.32 422.33 74.65 424.66 74 427 C73.34 427 72.68 427 72 427 C72 428.65 72 430.3 72 432 C71.34 432 70.68 432 70 432 C69.67 433.65 69.34 435.3 69 437 C68.34 437 67.68 437 67 437 C67 437.85 67 438.69 67 439.56 C65.71 443.99 63.57 445.44 60.06 448.26 C58.17 449.86 56.79 451.4 55.31 453.38 C53 456 53 456 50.19 456.88 C49.1 456.94 49.1 456.94 48 457 C48 457.66 48 458.32 48 459 C46.35 459 44.7 459 43 459 C42.67 459.99 42.34 460.98 42 462 C38.68 463.71 36.82 464 33 464 C33 464.66 33 465.32 33 466 C29.27 468.03 27.33 469 23 469 C23 469.66 23 470.32 23 471 C18.83 472.42 14.68 473.81 10.44 475 C7.87 475.75 5.53 476.57 3.06 477.56 C0.24 478.66 -2.3 479.25 -5.31 479.56 C-9.08 479.73 -9.08 479.73 -12 482 C-14.45 482.38 -14.45 482.38 -17.12 482.56 C-20.37 482.54 -20.37 482.54 -23 484 C-25.86 484.1 -28.7 484.14 -31.56 484.13 C-32.85 484.13 -32.85 484.13 -34.16 484.14 C-35.98 484.14 -37.81 484.13 -39.63 484.13 C-42.42 484.13 -45.22 484.13 -48.01 484.14 C-49.78 484.14 -51.54 484.13 -53.31 484.13 C-54.15 484.13 -54.99 484.14 -55.85 484.14 C-61.77 484.11 -61.77 484.11 -64 483 C-65.7 482.62 -67.41 482.27 -69.12 481.94 C-70.04 481.76 -70.95 481.58 -71.88 481.4 C-72.58 481.27 -73.28 481.14 -74 481 C-74 480.34 -74 479.68 -74 479 C-75.65 479 -77.3 479 -79 479 C-79 478.34 -79 477.68 -79 477 C-81.02 476.84 -83.04 476.67 -85.05 476.51 C-87 476 -87 476 -89 473 C-89.74 472.71 -90.49 472.42 -91.25 472.12 C-94.89 470.64 -97.12 468.68 -100 466 C-100 465.34 -100 464.68 -100 464 C-100.99 463.67 -101.98 463.34 -103 463 C-104.75 461.22 -104.75 461.22 -106.56 459.06 C-110.09 454.55 -110.09 454.55 -115.12 452.19 C-119.53 451.03 -123.46 448.87 -127 446 C-127 445.34 -127 444.68 -127 444 C-127.72 443.94 -128.44 443.88 -129.19 443.81 C-132.97 442.72 -134.34 440.91 -137 438 C-137.62 437.43 -138.24 436.86 -138.88 436.28 C-144.41 431.16 -147.71 425.73 -151 419 C-151.48 418.09 -151.48 418.09 -151.96 417.17 C-160.95 399.87 -160.59 381.66 -160.27 362.66 C-160.26 361.96 -160.25 361.26 -160.24 360.54 C-160.15 356.91 -159.8 353.54 -159 350 C-158.86 348.8 -158.71 347.61 -158.56 346.38 C-158 343 -158 343 -156 340 C-156 338.68 -156 337.36 -156 336 C-158.8 333.8 -158.8 333.8 -162 332 C-162.99 331.34 -163.98 330.68 -165 330 C-165 329.34 -165 328.68 -165 328 C-165.99 327.67 -166.98 327.34 -168 327 C-168 326.34 -168 325.68 -168 325 C-168.66 325 -169.32 325 -170 325 C-171.4 322.99 -172.57 320.88 -173.78 318.75 C-174.38 317.88 -174.38 317.88 -175 317 C-175.66 317 -176.32 317 -177 317 C-177.11 316.28 -177.22 315.56 -177.34 314.81 C-178.24 310.99 -180.06 307.92 -181.94 304.5 C-183.09 301.79 -183.2 299.91 -183 297 C-183.66 296.67 -184.32 296.34 -185 296 C-185.07 292.02 -185.13 288.03 -185.16 284.05 C-185.19 282.04 -185.23 280.02 -185.26 278.01 C-185.32 270.9 -185.02 265.47 -182 259 C-182 258.34 -182 257.68 -182 257 C-181.34 257 -180.68 257 -180 257 C-179.81 255.86 -179.81 255.86 -179.62 254.69 C-179 252 -179 252 -177 249 C-177 248.34 -177 247.68 -177 247 C-176.34 247 -175.68 247 -175 247 C-178.34 237.97 -184.15 230.82 -190.57 223.75 C-192.27 221.67 -193.04 219.5 -194 217 C-194.64 216.69 -195.28 216.38 -195.94 216.06 C-198.99 214.49 -199.57 212.04 -201 209 C-201.99 207.99 -202.99 206.99 -204 206 C-207.09 200.92 -208.8 195.73 -210.31 190 C-210.5 189.34 -210.68 188.67 -210.87 187.99 C-212.11 182.98 -211.83 179.08 -211 174 C-211 173.01 -211 172.02 -211 171 C-210.14 166.12 -208.92 161.57 -207 157 C-206.67 155.76 -206.34 154.52 -206 153.25 C-205.67 152.18 -205.34 151.11 -205 150 C-204.34 149.67 -203.68 149.34 -203 149 C-202.71 148.26 -202.42 147.51 -202.12 146.75 C-200.86 143.65 -199.12 141.58 -197 139 C-196.7 138.37 -196.39 137.73 -196.08 137.08 C-194.16 133.38 -191.26 130.56 -188 128 C-184.56 127.06 -184.56 127.06 -182 127 C-182 126.34 -182 125.68 -182 125 C-181.04 124.81 -181.04 124.81 -180.06 124.62 C-179.04 124.32 -179.04 124.32 -178 124 C-177.67 123.34 -177.34 122.68 -177 122 C-174.57 120.89 -174.57 120.89 -171.56 119.81 C-170.57 119.45 -169.59 119.08 -168.57 118.71 C-166 118 -166 118 -164 119 C-164 118.34 -164 117.68 -164 117 C-162.02 117 -160.04 117 -158 117 C-157.67 114.69 -157.34 112.38 -157 110 C-156.34 110 -155.68 110 -155 110 C-155 109.34 -155 108.68 -155 108 C-155.99 107.5 -155.99 107.5 -157 107 C-156.34 107 -155.68 107 -155 107 C-155.01 106.16 -155.02 105.31 -155.04 104.45 C-155.04 103.35 -155.05 102.25 -155.06 101.12 C-155.07 100.03 -155.09 98.94 -155.1 97.82 C-155 95 -155 95 -154 93 C-154.02 91.76 -154.04 90.52 -154.06 89.25 C-154.16 82.75 -153.02 76.4 -152 70 C-151.34 70 -150.68 70 -150 70 C-150.34 69.23 -150.34 69.23 -150.69 68.44 C-151.07 65.46 -150.21 63.7 -148.93 61.04 C-147.95 58.99 -147.95 58.99 -147.29 56.71 C-144.74 48.79 -139.59 42.97 -133 38 C-129.65 37.19 -129.65 37.19 -127 37 C-127 36.34 -127 35.68 -127 35 C-125.35 34.67 -123.7 34.34 -122 34 C-122 33.34 -122 32.68 -122 32 C-120.35 32 -118.7 32 -117 32 C-117 31.34 -117 30.68 -117 30 C-116.05 29.69 -115.1 29.38 -114.12 29.06 C-111.14 28.13 -111.14 28.13 -109 27 C-107.46 26.93 -105.92 26.92 -104.38 26.94 C-103.15 26.95 -103.15 26.95 -101.9 26.96 C-101.27 26.98 -100.65 26.99 -100 27 C-99.67 26.34 -99.34 25.68 -99 25 C-99 25.66 -99 26.32 -99 27 C-97.68 27 -96.36 27 -95 27 C-95 26.34 -95 25.68 -95 25 C-92.69 25 -90.38 25 -88 25 C-88 25.66 -88 26.32 -88 27 C-86.68 26.97 -86.68 26.97 -85.33 26.93 C-84.17 26.91 -83.01 26.89 -81.81 26.88 C-80.66 26.85 -79.52 26.83 -78.33 26.8 C-72.96 27.12 -69.07 29.42 -64.44 32 C-61.32 33.73 -58.2 35.43 -55 37 C-55 36.34 -55 35.68 -55 35 C-54.36 34.88 -53.72 34.75 -53.06 34.62 C-52.38 34.42 -51.7 34.21 -51 34 C-50.67 33.34 -50.34 32.68 -50 32 C-48.35 32 -46.7 32 -45 32 C-44.77 31.44 -44.54 30.89 -44.3 30.32 C-42.66 27.39 -40.62 25.32 -38.25 22.94 C-37.41 22.08 -36.57 21.22 -35.7 20.34 C-32.93 17.94 -30.27 16.62 -27 15 C-24.83 12.98 -22.91 10.85 -20.93 8.64 C-19 7 -19 7 -15 7 C-15 6.34 -15 5.68 -15 5 C-9.64 2.32 -5.99 1.68 0 2 C0 1.34 0 0.68 0 0 Z M496 43 C497 45 497 45 497 45 Z M677 54 C678 56 678 56 678 56 Z M1030 136 C1030 138.64 1030 141.28 1030 144 C1030.33 144 1030.66 144 1031 144 C1031 141.36 1031 138.72 1031 136 C1030.67 136 1030.34 136 1030 136 Z M-201 145 C-200 147 -200 147 -200 147 Z M1020 197 C1020 197.99 1020 198.98 1020 200 C1020.99 199.67 1021.98 199.34 1023 199 C1023 198.34 1023 197.68 1023 197 C1022.01 197 1021.02 197 1020 197 Z M1016 204 C1016.66 204.66 1017.32 205.32 1018 206 C1018 205.34 1018 204.68 1018 204 C1017.34 204 1016.68 204 1016 204 Z M1015 205 C1016 208 1016 208 1016 208 Z M1008 212 C1009 214 1009 214 1009 214 Z M1030 289 C1029.67 289.66 1029.34 290.32 1029 291 C1029.66 291 1030.32 291 1031 291 C1030.67 290.34 1030.34 289.68 1030 289 Z M1029 292 C1029.33 295.63 1029.66 299.26 1030 303 C1030.33 303 1030.66 303 1031 303 C1031 299.37 1031 295.74 1031 292 C1030.34 292 1029.68 292 1029 292 Z M1027 352 C1028 354 1028 354 1028 354 Z M1025 356 C1024.67 356.99 1024.34 357.98 1024 359 C1024.66 359 1025.32 359 1026 359 C1025.67 358.01 1025.34 357.02 1025 356 Z M1023 362 C1024 364 1024 364 1024 364 Z M1025 362 C1026 364 1026 364 1026 364 Z M91 369 C91.66 369.66 92.32 370.32 93 371 C93 370.34 93 369.68 93 369 C92.34 369 91.68 369 91 369 Z M83 375 C84 377 84 377 84 377 Z M82 381 C81.34 382.32 80.68 383.64 80 385 C80.99 384.67 81.98 384.34 83 384 C82.67 383.01 82.34 382.02 82 381 Z M1017 382 C1018 384 1018 384 1018 384 Z M80 386 C80 388.31 80 390.62 80 393 C79.01 393.5 79.01 393.5 78 394 C78.99 394 79.98 394 81 394 C81 391.36 81 388.72 81 386 C80.67 386 80.34 386 80 386 Z M1012 392 C1013 394 1013 394 1013 394 Z M78 397 C79 399 79 399 79 399 Z M77 407 C78 409 78 409 78 409 Z M75 411 C74.67 411.99 74.34 412.98 74 414 C74.66 414 75.32 414 76 414 C75.67 413.01 75.34 412.02 75 411 Z M998 414 C998 414.99 998 415.98 998 417 C998.66 416.67 999.32 416.34 1000 416 C1000 415.34 1000 414.68 1000 414 C999.34 414 998.68 414 998 414 Z M73 417 C74 419 74 419 74 419 Z M995 417 C995 417.99 995 418.98 995 420 C995.99 419.67 996.98 419.34 998 419 C997.67 418.34 997.34 417.68 997 417 C996.34 417 995.68 417 995 417 Z M991 424 C991.66 424.66 992.32 425.32 993 426 C993 425.34 993 424.68 993 424 C992.34 424 991.68 424 991 424 Z M63 439 C63.66 439.66 64.32 440.32 65 441 C65 440.34 65 439.68 65 439 C64.34 439 63.68 439 63 439 Z M452 445 C453 447 453 447 453 447 Z M967 445 C968 447 968 447 968 447 Z M965 447 C965 447.99 965 448.98 965 450 C965.99 449.67 966.98 449.34 968 449 C967.67 448.34 967.34 447.68 967 447 C966.34 447 965.68 447 965 447 Z M54 448 C53.67 448.66 53.34 449.32 53 450 C53.66 450 54.32 450 55 450 C54.67 449.34 54.34 448.68 54 448 Z M50 452 C50 452.99 50 453.98 50 455 C50.66 454.67 51.32 454.34 52 454 C52 453.34 52 452.68 52 452 C51.34 452 50.68 452 50 452 Z M440 452 C440 452.99 440 453.98 440 455 C440.66 454.67 441.32 454.34 442 454 C442 453.34 442 452.68 442 452 C441.34 452 440.68 452 440 452 Z M735 452 C735 452.99 735 453.98 735 455 C735.66 454.67 736.32 454.34 737 454 C737 453.34 737 452.68 737 452 C736.34 452 735.68 452 735 452 Z M835 452 C835 452.99 835 453.98 835 455 C835.99 454.67 836.98 454.34 838 454 C838 453.34 838 452.68 838 452 C837.01 452 836.02 452 835 452 Z M827 458 C827 458.66 827 459.32 827 460 C827.66 459.67 828.32 459.34 829 459 C828.34 458.67 827.68 458.34 827 458 Z M699 465 C703 466 703 466 703 466 Z M214 466 C212.02 466.99 212.02 466.99 210 468 C211.65 468 213.3 468 215 468 C214.67 467.34 214.34 466.68 214 466 Z M317 467 C317 467.33 317 467.66 317 468 C318.98 468 320.96 468 323 468 C323 467.67 323 467.34 323 467 C321.02 467 319.04 467 317 467 Z M374 467 C374 467.33 374 467.66 374 468 C376.31 468 378.62 468 381 468 C381 467.67 381 467.34 381 467 C378.69 467 376.38 467 374 467 Z M382 467 C386 468 386 468 386 468 Z M397 465 C397 465.33 397 465.66 397 466 C392.54 466.5 392.54 466.5 388 467 C388 467.33 388 467.66 388 468 C391.63 468 395.26 468 399 468 C399 467.01 399 466.02 399 465 C398.34 465 397.68 465 397 465 Z M792 467 C792 467.33 792 467.66 792 468 C795.96 468 799.92 468 804 468 C804 467.67 804 467.34 804 467 C800.04 467 796.08 467 792 467 Z M892 467 C892 467.33 892 467.66 892 468 C895.3 468 898.6 468 902 468 C902 467.67 902 467.34 902 467 C898.7 467 895.4 467 892 467 Z M915 467 C915 467.33 915 467.66 915 468 C918.63 468 922.26 468 926 468 C926 467.67 926 467.34 926 467 C922.37 467 918.74 467 915 467 Z M-35 482 C-35 482.33 -35 482.66 -35 483 C-31.37 483 -27.74 483 -24 483 C-24 482.67 -24 482.34 -24 482 C-27.63 482 -31.26 482 -35 482 Z " fill="#F0ECCC" transform="translate(227,395)"/>
<path d="M0 0 C1.04 0.33 1.04 0.33 2.09 0.67 C30.97 10.15 51.69 29.23 65.75 55.81 C78.64 82.72 81.45 113.16 71.46 141.56 C62.69 164.78 46.3 182.4 27.79 198.42 C14.06 210.54 -6.51 235.11 -8 254 C-7.09 254.54 -6.19 255.07 -5.25 255.62 C-0.98 258.46 1.39 262.16 3 267 C3.45 273.85 2.58 278.03 -2.06 283.38 C-4 285 -4 285 -6 285 C-5.63 285.69 -5.25 286.38 -4.87 287.09 C-1.7 293.38 0.18 298.1 -2 305 C-4.26 309.79 -6.99 312.19 -11.71 314.32 C-17.47 316.04 -23.23 315.21 -29 314 C-33.1 313.28 -33.1 313.28 -37 314 C-39.05 316.1 -40.62 318.33 -42.28 320.74 C-46.12 325.78 -52.68 328.48 -58.84 329.44 C-68.31 329.81 -75.22 327.32 -83 322 C-86.83 318.08 -88.46 315.06 -89.81 309.81 C-90.89 306.58 -90.89 306.58 -93 304 C-97.04 302.56 -100.8 302.05 -105.03 301.56 C-110.85 300.88 -115.77 298.52 -119.68 294.11 C-122.22 290.05 -122.51 285.42 -121.53 280.78 C-120.13 276.7 -118.48 273.7 -115 271 C-114.34 271 -113.68 271 -113 271 C-113.29 270.37 -113.58 269.74 -113.88 269.09 C-117 261.88 -118.17 257.05 -115.94 249.31 C-113.62 245.35 -111.25 242.82 -107 241 C-104.33 240.54 -101.7 240.26 -99 240 C-103.15 213.18 -109 187.77 -124 164.75 C-139.39 140.27 -144.78 109.57 -138.59 81.39 C-134.26 63.88 -126.93 47.61 -115 34 C-114.11 32.9 -114.11 32.9 -113.21 31.78 C-101.19 17.28 -83.84 6.63 -66 1 C-65.28 0.77 -64.56 0.54 -63.82 0.31 C-43.14 -6.03 -20.7 -6.58 0 0 Z " fill="#F7C634" transform="translate(248,491)"/>
<path d="M0 0 C15 0.27 25.97 8.87 35.95 19.16 C43.87 27.85 50.67 37.71 55.75 48.31 C56.06 48.94 56.36 49.57 56.67 50.21 C71.3 80.54 76.83 113.87 77.75 147.31 C77.79 148.45 77.83 149.58 77.88 150.75 C78.68 191.72 69.96 239.02 44.75 272.31 C44.08 273.23 43.42 274.15 42.73 275.09 C33.53 287.25 21.26 298.21 5.84 301.03 C2.78 301.27 -0.19 301.4 -3.25 301.31 C-4.49 298.83 -4.38 297.19 -4.38 294.42 C-4.38 293.37 -4.38 292.33 -4.38 291.26 C-4.38 290.11 -4.38 288.95 -4.38 287.77 C-4.38 286.55 -4.38 285.33 -4.38 284.07 C-4.39 280.68 -4.38 277.29 -4.38 273.9 C-4.38 270.25 -4.38 266.6 -4.38 262.94 C-4.39 255.78 -4.39 248.62 -4.39 241.46 C-4.38 235.64 -4.38 229.83 -4.38 224.01 C-4.38 223.18 -4.38 222.36 -4.38 221.51 C-4.38 219.83 -4.38 218.15 -4.39 216.47 C-4.39 200.71 -4.38 184.96 -4.38 169.2 C-4.37 155.67 -4.38 142.13 -4.38 128.6 C-4.39 112.9 -4.39 97.2 -4.38 81.5 C-4.38 79.82 -4.38 78.15 -4.38 76.48 C-4.38 75.25 -4.38 75.25 -4.38 73.99 C-4.38 68.17 -4.38 62.36 -4.39 56.55 C-4.39 49.47 -4.39 42.39 -4.38 35.31 C-4.38 31.69 -4.38 28.08 -4.38 24.46 C-4.39 20.55 -4.38 16.64 -4.38 12.73 C-4.38 11.58 -4.38 10.42 -4.38 9.23 C-4.38 8.19 -4.38 7.15 -4.38 6.08 C-4.38 5.18 -4.38 4.28 -4.38 3.35 C-4.17 -0.05 -3.5 0.34 0 0 Z " fill="#F0ECCC" transform="translate(615.25,486.6875)"/>
<path d="M0 0 C1.04 0.33 1.04 0.33 2.09 0.67 C30.97 10.15 51.69 29.23 65.75 55.81 C78.64 82.72 81.45 113.16 71.46 141.56 C62.69 164.78 46.3 182.4 27.79 198.42 C14.06 210.54 -6.51 235.11 -8 254 C-7.09 254.54 -6.19 255.07 -5.25 255.62 C-0.98 258.46 1.39 262.16 3 267 C3.45 273.85 2.58 278.03 -2.06 283.38 C-4 285 -4 285 -6 285 C-5.63 285.69 -5.25 286.38 -4.87 287.09 C-1.7 293.38 0.18 298.1 -2 305 C-4.26 309.79 -6.99 312.19 -11.71 314.32 C-17.47 316.04 -23.23 315.21 -29 314 C-33.1 313.28 -33.1 313.28 -37 314 C-39.05 316.1 -40.62 318.33 -42.28 320.74 C-46.12 325.78 -52.68 328.48 -58.84 329.44 C-68.31 329.81 -75.22 327.32 -83 322 C-86.83 318.08 -88.46 315.06 -89.81 309.81 C-90.89 306.58 -90.89 306.58 -93 304 C-97.04 302.56 -100.8 302.05 -105.03 301.56 C-110.85 300.88 -115.77 298.52 -119.68 294.11 C-122.22 290.05 -122.51 285.42 -121.53 280.78 C-120.13 276.7 -118.48 273.7 -115 271 C-114.34 271 -113.68 271 -113 271 C-113.29 270.37 -113.58 269.74 -113.88 269.09 C-117 261.88 -118.17 257.05 -115.94 249.31 C-113.62 245.35 -111.25 242.82 -107 241 C-104.33 240.54 -101.7 240.26 -99 240 C-103.15 213.18 -109 187.77 -124 164.75 C-139.39 140.27 -144.78 109.57 -138.59 81.39 C-134.26 63.88 -126.93 47.61 -115 34 C-114.11 32.9 -114.11 32.9 -113.21 31.78 C-101.19 17.28 -83.84 6.63 -66 1 C-65.28 0.77 -64.56 0.54 -63.82 0.31 C-43.14 -6.03 -20.7 -6.58 0 0 Z M-109 34 C-127.35 55.75 -137.91 83.35 -136 112 C-134.12 129.84 -128.96 145.17 -120.25 160.77 C-107.32 183.93 -98.48 206.66 -94.99 233.09 C-94.51 237.5 -94.51 237.5 -92 241 C-89.88 241.55 -89.88 241.55 -87.42 241.85 C-86.51 241.98 -85.59 242.11 -84.65 242.24 C-83.69 242.37 -82.74 242.49 -81.75 242.62 C-80.81 242.76 -79.87 242.89 -78.89 243.03 C-74.21 243.68 -69.74 244.03 -65 244 C-63.3 233.51 -61.61 223.02 -59.92 212.52 C-59.13 207.65 -58.34 202.78 -57.55 197.91 C-56.79 193.21 -56.03 188.51 -55.28 183.81 C-54.99 182.01 -54.7 180.22 -54.41 178.42 C-54 175.91 -53.6 173.4 -53.19 170.89 C-53.07 170.15 -52.95 169.4 -52.82 168.64 C-52.3 165.36 -52 162.33 -52 159 C-52.66 159 -53.32 159 -54 159 C-54 158.34 -54 157.68 -54 157 C-54.99 156.85 -55.98 156.71 -57 156.55 C-64.78 155.28 -71.46 154.11 -77 148 C-79.52 144.01 -79.55 139.61 -79 135 C-77.25 129.03 -74.17 125.32 -69 122 C-64 120.39 -59.42 120.61 -54.38 122 C-49.43 124.93 -47.51 128.99 -45 134 C-44.59 140.39 -45.18 146.67 -46 153 C-42.03 154.8 -38.32 155.49 -34 156 C-32.94 153.07 -32.04 150.18 -31.38 147.14 C-29.65 139.26 -28.08 134.92 -21.38 130.12 C-15.69 128.23 -9.82 128.02 -4.12 130 C0.96 134.79 3.32 139.03 3.56 146.12 C3.33 151.17 2.57 154.24 -1 158 C-6.47 162.8 -11.31 162.49 -18.38 162.25 C-19.4 162.23 -20.42 162.21 -21.47 162.2 C-23.98 162.15 -26.49 162.08 -29 162 C-30.36 167.22 -31.49 172.41 -32.34 177.75 C-32.46 178.47 -32.58 179.2 -32.7 179.95 C-33.09 182.33 -33.47 184.7 -33.86 187.08 C-34.12 188.74 -34.39 190.41 -34.66 192.07 C-35.22 195.54 -35.78 199.01 -36.33 202.48 C-37.05 206.93 -37.77 211.38 -38.49 215.83 C-39.05 219.26 -39.6 222.69 -40.15 226.11 C-40.41 227.76 -40.68 229.4 -40.94 231.04 C-41.32 233.32 -41.68 235.61 -42.04 237.9 C-42.25 239.2 -42.46 240.5 -42.68 241.85 C-43.22 245.02 -43.22 245.02 -42 248 C-33.07 251.06 -23.36 251.59 -14 252 C-13.77 251.49 -13.54 250.97 -13.3 250.45 C-8.59 240.05 -3.78 230.24 3 221 C3.89 219.75 4.78 218.49 5.68 217.24 C14.76 204.66 24.98 193.34 36.64 183.09 C56.79 165.27 70.24 141.65 72.18 114.42 C73.7 83.36 64.56 56.19 43.79 32.97 C24.39 11.99 -0.5 2.11 -28.69 -0.22 C-58.4 -1.26 -88.8 12.73 -109 34 Z " fill="#000100" transform="translate(248,491)"/>
<path d="M0 0 C3.62 0.5 3.62 0.5 5.7 2.75 C8.7 7.68 9.13 13.44 9.97 19.05 C10.18 20.37 10.39 21.69 10.61 23.01 C11.07 25.91 11.52 28.82 11.97 31.72 C12.7 36.48 13.46 41.25 14.21 46.01 C15.37 53.3 16.51 60.6 17.65 67.89 C19.85 81.99 22.09 96.08 24.32 110.18 C25.81 119.55 25.81 119.55 26.5 123.94 C26.71 125.27 26.92 126.59 27.13 127.91 C28.65 137.52 30.17 147.13 31.69 156.74 C35.88 183.31 40.14 209.88 44.5 236.42 C47.24 253.13 49.95 269.83 52.58 286.55 C53 289.23 53.42 291.9 53.85 294.57 C54.49 298.6 55.12 302.63 55.75 306.65 C55.94 307.84 56.13 309.02 56.33 310.25 C58.73 325.69 58.73 325.69 56.06 330.06 C53.62 331.5 53.62 331.5 50.12 331.5 C46.28 330.4 45.12 329.54 42.62 326.5 C41.81 324.01 41.81 324.01 41.36 321.16 C41.1 319.54 41.1 319.54 40.83 317.9 C40.65 316.73 40.47 315.55 40.29 314.35 C40.1 313.12 39.9 311.89 39.69 310.63 C39.16 307.3 38.64 303.96 38.13 300.63 C37.6 297.18 37.05 293.73 36.5 290.28 C35.29 282.68 34.1 275.07 32.93 267.45 C32.45 264.38 31.97 261.3 31.5 258.23 C31.15 255.98 30.8 253.73 30.45 251.48 C30.29 250.42 30.13 249.37 29.96 248.28 C29.19 243.35 28.44 238.42 27.69 233.5 C27.56 232.61 27.43 231.73 27.29 230.82 C27.04 229.19 26.79 227.55 26.55 225.92 C26.27 222.41 26.27 222.41 24.62 219.5 C23.06 219.41 21.49 219.38 19.92 219.39 C18.42 219.39 18.42 219.39 16.89 219.39 C15.8 219.39 14.71 219.4 13.59 219.4 C11.93 219.4 11.93 219.4 10.23 219.41 C6.67 219.41 3.12 219.42 -0.44 219.44 C-2.84 219.44 -5.25 219.45 -7.65 219.45 C-13.56 219.46 -19.47 219.48 -25.38 219.5 C-25.61 220.95 -25.84 222.4 -26.07 223.85 C-26.23 224.81 -26.38 225.77 -26.54 226.76 C-26.9 228.96 -27.25 231.15 -27.6 233.35 C-28.6 239.56 -29.6 245.76 -30.6 251.97 C-32.46 263.51 -34.32 275.06 -36.1 286.61 C-36.81 291.21 -37.53 295.81 -38.24 300.41 C-38.58 302.59 -38.91 304.77 -39.24 306.95 C-39.7 309.98 -40.17 313.01 -40.65 316.04 C-40.78 316.93 -40.91 317.82 -41.05 318.74 C-41.76 323.23 -42.47 326.85 -45.38 330.5 C-49.29 331.89 -50.91 331.7 -54.75 330.06 C-55.62 329.55 -56.48 329.03 -57.38 328.5 C-57.99 318.18 -56.13 308.26 -54.46 298.12 C-54.15 296.13 -53.83 294.15 -53.51 292.16 C-52.82 287.85 -52.12 283.54 -51.42 279.22 C-50.29 272.25 -49.17 265.28 -48.05 258.31 C-46.83 250.71 -45.62 243.12 -44.39 235.52 C-41.05 214.73 -37.74 193.92 -34.44 173.12 C-34.19 171.52 -33.93 169.92 -33.68 168.31 C-32.41 160.3 -31.14 152.29 -29.87 144.28 C-28.41 135.04 -26.95 125.8 -25.48 116.56 C-25.37 115.83 -25.25 115.09 -25.13 114.33 C-23.86 106.34 -22.6 98.36 -21.33 90.37 C-20.99 88.26 -20.66 86.16 -20.32 84.05 C-20.1 82.66 -19.88 81.28 -19.66 79.89 C-18.34 71.63 -17.04 63.36 -15.75 55.1 C-14.82 49.17 -13.89 43.24 -12.96 37.31 C-12.57 34.87 -12.19 32.43 -11.82 29.99 C-11.3 26.66 -10.78 23.33 -10.25 20 C-10.1 19.03 -9.96 18.06 -9.81 17.06 C-7.23 1.07 -7.23 1.07 0 0 Z " fill="#000100" transform="translate(972.375,471.5)"/>
<path d="M0 0 C0.88 0.35 1.77 0.7 2.68 1.06 C14.72 6.31 24.38 16.57 32 27 C32.78 28.04 33.55 29.08 34.35 30.15 C52.76 55.69 61.88 86.3 67 117 C67.13 117.76 67.25 118.51 67.38 119.29 C76.48 176.3 67.96 241.62 35 290 C22.73 306.45 7.12 320.96 -13.51 325.53 C-17.97 326.13 -22.37 326.36 -26.88 326.44 C-28.09 326.47 -28.09 326.47 -29.33 326.51 C-30.49 326.5 -30.49 326.5 -31.68 326.5 C-32.37 326.5 -33.06 326.5 -33.77 326.5 C-37.23 325.72 -39.78 324.8 -42 322 C-42.94 317.79 -42.79 313.61 -42.73 309.31 C-42.73 308 -42.74 306.68 -42.75 305.33 C-42.76 301.67 -42.74 298.01 -42.71 294.36 C-42.69 290.41 -42.7 286.47 -42.7 282.53 C-42.71 274.81 -42.69 267.08 -42.65 259.36 C-42.61 250.37 -42.61 241.38 -42.6 232.39 C-42.6 216.36 -42.56 200.32 -42.51 184.29 C-42.46 168.72 -42.42 153.15 -42.41 137.58 C-42.4 136.62 -42.4 135.66 -42.4 134.67 C-42.4 130.82 -42.39 126.96 -42.39 123.11 C-42.37 106.5 -42.34 89.89 -42.31 73.27 C-42.31 70.58 -42.3 67.89 -42.3 65.19 C-42.28 54.97 -42.26 44.75 -42.22 34.53 C-42.21 31.42 -42.21 28.32 -42.2 25.22 C-42.19 21 -42.18 16.78 -42.16 12.56 C-42.16 11.32 -42.16 10.08 -42.16 8.8 C-42.15 7.67 -42.15 6.55 -42.14 5.39 C-42.14 4.41 -42.13 3.44 -42.13 2.43 C-42 0 -42 0 -41 -3 C-30.2 -10.1 -10.84 -4.78 0 0 Z M-27 11 C-27.1 12.59 -27.13 14.18 -27.13 15.77 C-27.13 16.81 -27.13 17.85 -27.13 18.92 C-27.13 20.07 -27.13 21.23 -27.13 22.42 C-27.13 23.64 -27.13 24.85 -27.13 26.11 C-27.14 29.5 -27.13 32.89 -27.13 36.28 C-27.13 39.93 -27.13 43.58 -27.13 47.24 C-27.14 54.4 -27.14 61.56 -27.14 68.72 C-27.13 74.53 -27.13 80.35 -27.13 86.17 C-27.13 86.99 -27.13 87.82 -27.13 88.67 C-27.13 90.35 -27.13 92.03 -27.14 93.71 C-27.14 109.47 -27.13 125.22 -27.13 140.98 C-27.12 154.52 -27.13 168.05 -27.13 181.58 C-27.14 197.28 -27.14 212.98 -27.13 228.68 C-27.13 230.35 -27.13 232.03 -27.13 233.7 C-27.13 234.52 -27.13 235.35 -27.13 236.19 C-27.13 242.01 -27.13 247.82 -27.14 253.63 C-27.14 260.71 -27.14 267.79 -27.13 274.87 C-27.13 278.49 -27.13 282.1 -27.13 285.72 C-27.14 289.63 -27.13 293.54 -27.13 297.45 C-27.13 298.61 -27.13 299.76 -27.13 300.95 C-27.13 301.99 -27.13 303.03 -27.13 304.1 C-27.13 305.01 -27.13 305.91 -27.13 306.84 C-27.14 309.05 -27.14 309.05 -26 311 C-11.96 311.38 -0.44 305.74 9.81 296.44 C43.65 264.12 53.72 211.7 55.15 166.96 C55.19 163.63 55.12 160.33 55 157 C54.98 156.29 54.96 155.59 54.94 154.86 C53.57 106.68 41.71 57.83 6.78 22.77 C-1.42 15.06 -11.01 10.02 -22.44 9.81 C-25.81 9.59 -25.81 9.59 -27 11 Z " fill="#000100" transform="translate(638,477)"/>
<path d="M0 0 C19.79 14.27 30.34 38.51 34.49 61.9 C34.62 63.27 34.72 64.65 34.8 66.02 C34.88 67.15 34.96 68.28 35.04 69.45 C35.45 80.3 35.45 80.3 32.68 83.46 C29.8 85.02 29.8 85.02 26.68 84.96 C23.8 84.02 23.8 84.02 20.8 82.02 C19.87 79.22 19.52 76.93 19.23 74.01 C16.62 49.51 10.11 29.27 -9.2 13.02 C-18.33 6.73 -29.35 5.85 -40.06 7.45 C-52.49 10.3 -63.07 19.6 -70.05 30.09 C-82.99 51.94 -84.96 78.71 -79.2 103.02 C-74.68 120.24 -65.44 133.93 -50.2 143.43 C-43.63 146.91 -37.37 148.03 -30.01 148.4 C-18.54 149.1 -7.13 152.66 1.8 160.02 C2.61 160.66 3.42 161.29 4.25 161.95 C20.86 175.84 31.78 198.76 34.52 220.13 C36.72 250.5 32.29 277.76 12.05 301.55 C2.15 312.43 -11.63 321.47 -26.68 322.19 C-33.5 322.23 -39.68 322.23 -46.2 320.02 C-47.32 319.66 -47.32 319.66 -48.47 319.28 C-55.8 316.67 -61.94 312.59 -68.2 308.02 C-68.92 307.5 -69.64 306.98 -70.38 306.44 C-87.05 293.17 -95.09 270.32 -97.82 249.81 C-98.14 246.63 -98.36 243.53 -98.38 240.34 C-98.4 239.45 -98.41 238.55 -98.43 237.64 C-98.17 234.74 -97.46 232.63 -96.2 230.02 C-93.69 228.06 -92.33 228.02 -89.13 228.09 C-86.2 229.02 -86.2 229.02 -84.6 230.91 C-82.56 235.43 -82.31 239.93 -81.82 244.84 C-80.68 254.74 -78.77 263.72 -75.2 273.02 C-74.69 274.38 -74.69 274.38 -74.18 275.77 C-68.78 288.33 -56.93 298.85 -44.54 304.16 C-35.07 307.64 -24.4 306.84 -15.2 303.02 C-0.37 295.7 9.07 282.26 14.55 266.99 C22.66 242.45 20.15 215.57 8.74 192.59 C2.73 181.7 -6.35 171.41 -18.13 166.89 C-21.75 165.87 -25.34 165.37 -29.07 164.96 C-48.1 162.85 -64.79 155.91 -77.66 141.21 C-94.35 119.9 -100.52 92.41 -97.98 65.74 C-94.77 40.37 -83.8 17.12 -63.61 0.95 C-44.17 -12.52 -19.96 -12.55 0 0 Z " fill="#000100" transform="translate(1164.1953125,480.9765625)"/>
<path d="M0 0 C0.71 -0.01 1.41 -0.01 2.14 -0.02 C4.47 -0.04 6.81 -0.04 9.14 -0.05 C10.77 -0.05 12.39 -0.06 14.01 -0.07 C17.41 -0.08 20.82 -0.08 24.22 -0.08 C28.58 -0.08 32.94 -0.11 37.29 -0.14 C40.65 -0.16 44 -0.17 47.35 -0.17 C48.96 -0.17 50.56 -0.18 52.17 -0.19 C54.42 -0.21 56.67 -0.21 58.91 -0.2 C60.83 -0.2 60.83 -0.2 62.79 -0.2 C66.59 0.38 67.74 1.26 70.02 4.29 C71.08 7.23 71.08 7.23 71.02 10.29 C68.53 13.43 67.01 15.09 63.03 15.89 C61.92 15.88 60.81 15.87 59.67 15.86 C58.41 15.86 57.15 15.86 55.85 15.86 C54.48 15.83 53.12 15.81 51.75 15.78 C50.35 15.77 48.94 15.76 47.54 15.76 C43.85 15.74 40.16 15.69 36.47 15.63 C32.71 15.58 28.94 15.56 25.17 15.53 C17.79 15.48 10.41 15.4 3.02 15.29 C3 33.53 2.98 51.76 2.97 70 C2.96 78.47 2.96 86.93 2.95 95.4 C2.94 102.78 2.93 110.15 2.93 117.53 C2.93 121.44 2.92 125.35 2.92 129.26 C2.91 132.93 2.91 136.61 2.91 140.28 C2.91 142.28 2.9 144.28 2.9 146.28 C2.9 147.46 2.9 148.64 2.9 149.86 C2.9 151.4 2.9 151.4 2.9 152.98 C2.76 155.25 2.76 155.25 4.02 156.29 C5.97 156.41 7.92 156.46 9.87 156.48 C11.12 156.5 12.37 156.51 13.66 156.53 C14.67 156.54 14.67 156.54 15.7 156.55 C17.8 156.57 19.91 156.6 22.01 156.63 C26.47 156.69 30.93 156.74 35.4 156.79 C40.56 156.85 45.72 156.91 50.89 156.98 C52.96 157.01 55.03 157.03 57.1 157.05 C58.36 157.07 59.62 157.08 60.91 157.1 C62.02 157.11 63.13 157.13 64.28 157.14 C67.02 157.29 67.02 157.29 70.02 158.29 C72.33 161.17 73.03 162.7 72.96 166.42 C71.84 169.83 71.1 170.53 68.02 172.29 C65.07 172.65 65.07 172.65 61.6 172.63 C59.65 172.63 59.65 172.63 57.66 172.63 C56.24 172.62 54.83 172.6 53.41 172.58 C51.96 172.58 50.51 172.57 49.06 172.57 C45.24 172.56 41.43 172.53 37.62 172.5 C33.72 172.47 29.83 172.45 25.93 172.44 C18.3 172.4 10.66 172.35 3.02 172.29 C3 190.53 2.98 208.76 2.97 227 C2.96 235.47 2.96 243.93 2.95 252.4 C2.94 259.78 2.93 267.15 2.93 274.53 C2.93 278.44 2.92 282.35 2.92 286.26 C2.91 289.93 2.91 293.61 2.91 297.28 C2.91 299.28 2.9 301.28 2.9 303.28 C2.9 304.46 2.9 305.64 2.9 306.86 C2.9 308.4 2.9 308.4 2.9 309.98 C2.76 312.25 2.76 312.25 4.02 313.29 C5.93 313.39 7.85 313.43 9.76 313.43 C10.99 313.44 12.22 313.45 13.49 313.45 C14.15 313.46 14.81 313.46 15.49 313.46 C17.55 313.47 19.61 313.48 21.68 313.5 C27.55 313.55 33.42 313.6 39.29 313.62 C42.87 313.63 46.46 313.66 50.05 313.7 C51.41 313.71 52.78 313.72 54.15 313.71 C56.06 313.71 57.98 313.73 59.89 313.76 C61.53 313.77 61.53 313.77 63.19 313.78 C66.7 314.41 67.85 315.52 70.02 318.29 C71.08 321.23 71.08 321.23 71.02 324.29 C68.43 327.62 66.92 329.12 62.73 329.91 C61.48 329.91 60.23 329.91 58.94 329.91 C57.9 329.91 57.9 329.91 56.84 329.92 C54.56 329.93 52.28 329.91 49.99 329.88 C48.4 329.88 46.81 329.88 45.22 329.88 C41.88 329.88 38.55 329.86 35.21 329.83 C30.95 329.79 26.68 329.79 22.42 329.8 C19.13 329.8 15.84 329.79 12.55 329.77 C10.98 329.76 9.41 329.76 7.84 329.76 C5.64 329.76 3.43 329.74 1.23 329.71 C-0.02 329.7 -1.27 329.69 -2.56 329.68 C-6.32 329.25 -8.76 328.26 -11.98 326.29 C-13.25 323.74 -13.11 321.96 -13.11 319.11 C-13.11 318 -13.12 316.9 -13.12 315.76 C-13.12 314.53 -13.12 313.31 -13.12 312.05 C-13.12 310.76 -13.12 309.46 -13.13 308.13 C-13.14 304.53 -13.14 300.93 -13.14 297.33 C-13.14 293.45 -13.15 289.58 -13.15 285.7 C-13.17 277.21 -13.17 268.73 -13.18 260.24 C-13.18 254.95 -13.19 249.65 -13.19 244.35 C-13.2 229.7 -13.21 215.04 -13.22 200.39 C-13.22 199.45 -13.22 198.51 -13.22 197.55 C-13.22 196.14 -13.22 196.14 -13.22 194.7 C-13.22 192.79 -13.22 190.88 -13.22 188.98 C-13.22 188.03 -13.22 187.09 -13.22 186.11 C-13.22 170.79 -13.24 155.46 -13.26 140.14 C-13.29 124.41 -13.3 108.69 -13.3 92.96 C-13.3 84.13 -13.31 75.3 -13.33 66.47 C-13.34 58.94 -13.35 51.42 -13.34 43.9 C-13.33 40.06 -13.34 36.23 -13.35 32.39 C-13.36 28.23 -13.36 24.07 -13.35 19.91 C-13.35 18.7 -13.36 17.48 -13.37 16.22 C-13.36 15.11 -13.36 14 -13.35 12.85 C-13.35 11.89 -13.35 10.93 -13.35 9.94 C-12.9 6.74 -11.88 4.89 -9.98 2.29 C-6.28 -0.17 -4.41 0.03 0 0 Z " fill="#000100" transform="translate(781.978271484375,473.70947265625)"/>
<path d="M0 0 C0.91 -0.01 1.81 -0.01 2.75 -0.02 C4.24 -0.03 4.24 -0.03 5.76 -0.03 C6.8 -0.04 7.85 -0.04 8.93 -0.05 C12.4 -0.07 15.87 -0.08 19.34 -0.09 C20.53 -0.1 21.71 -0.1 22.93 -0.1 C29.19 -0.12 35.45 -0.14 41.72 -0.15 C48.19 -0.16 54.67 -0.19 61.15 -0.23 C66.12 -0.26 71.09 -0.27 76.07 -0.27 C78.46 -0.28 80.85 -0.29 83.23 -0.31 C86.57 -0.33 89.91 -0.33 93.25 -0.32 C94.73 -0.34 94.73 -0.34 96.25 -0.36 C102.92 -0.31 102.92 -0.31 106.16 1.99 C107.95 4.74 108.36 6.89 108.57 10.15 C107.57 13.15 107.57 13.15 103.57 15.15 C88.39 15.48 73.21 15.81 57.57 16.15 C57.57 114.49 57.57 212.83 57.57 314.15 C72.75 314.15 87.93 314.15 103.57 314.15 C107.57 318.15 107.57 318.15 108.63 321.65 C108.57 325.15 108.57 325.15 106.71 327.33 C102.2 329.94 98.31 329.71 93.18 329.66 C91.61 329.68 91.61 329.68 90.01 329.69 C86.56 329.7 83.11 329.69 79.66 329.68 C77.26 329.68 74.86 329.68 72.46 329.69 C67.43 329.7 62.41 329.69 57.38 329.67 C50.93 329.65 44.49 329.66 38.04 329.68 C33.09 329.7 28.13 329.69 23.18 329.68 C20.8 329.68 18.42 329.68 16.05 329.69 C12.73 329.7 9.4 329.69 6.08 329.66 C5.1 329.67 4.12 329.68 3.11 329.69 C-2.66 329.62 -6.09 329.08 -10.43 325.15 C-11.09 321.64 -10.88 319.93 -9.12 316.83 C-7.01 314.73 -5.28 314.2 -2.33 314.03 C-1.11 314.03 -1.11 314.03 0.13 314.03 C1.05 314.03 1.97 314.03 2.92 314.03 C3.91 314.04 4.9 314.04 5.92 314.05 C7.45 314.05 7.45 314.05 9 314.05 C12.25 314.06 15.5 314.07 18.75 314.08 C20.96 314.09 23.16 314.09 25.36 314.1 C30.76 314.11 36.16 314.13 41.57 314.15 C41.46 276.33 41.35 238.51 41.23 200.69 C41.22 196.23 41.21 191.77 41.19 187.31 C41.19 186.42 41.19 185.53 41.19 184.62 C41.14 170.22 41.1 155.83 41.06 141.43 C41.02 126.67 40.98 111.91 40.93 97.14 C40.9 88.03 40.87 78.91 40.85 69.8 C40.84 63.55 40.82 57.31 40.79 51.07 C40.78 47.46 40.77 43.85 40.76 40.25 C40.76 36.35 40.74 32.44 40.72 28.54 C40.72 27.39 40.72 26.24 40.72 25.05 C40.72 24.01 40.71 22.98 40.7 21.91 C40.7 21.01 40.7 20.1 40.7 19.18 C40.79 17.15 40.79 17.15 39.57 16.15 C38.18 16.05 36.79 16.01 35.4 16.01 C34.52 16 33.63 15.99 32.72 15.98 C31.27 15.98 31.27 15.98 29.8 15.97 C27.78 15.95 25.75 15.92 23.73 15.9 C20.52 15.86 17.32 15.83 14.11 15.82 C11.03 15.81 7.95 15.77 4.86 15.72 C3.43 15.72 3.43 15.72 1.97 15.73 C-2.31 15.65 -4.8 15.52 -8.55 13.3 C-10.43 11.15 -10.43 11.15 -10.93 8.15 C-10.39 4.89 -9.75 3.47 -7.43 1.15 C-4.63 0.21 -2.9 0.02 0 0 Z " fill="#000100" transform="translate(442.43394470214844,473.8528289794922)"/>
<path d="M0 0 C0.33 0 0.66 0 1 0 C1.12 1.45 1.12 1.45 1.24 2.93 C2.71 19.24 5.55 35.36 8.22 51.51 C9.31 58.09 10.39 64.67 11.46 71.26 C11.73 72.91 12 74.57 12.27 76.22 C16.02 99.12 19.51 122.06 23 145 C7.82 145 -7.36 145 -23 145 C-24.16 141.53 -23.83 139.8 -23.26 136.22 C-23.07 135.01 -22.89 133.81 -22.69 132.57 C-22.48 131.24 -22.26 129.91 -22.04 128.57 C-21.82 127.18 -21.6 125.78 -21.38 124.38 C-20.78 120.6 -20.18 116.82 -19.57 113.05 C-18.93 109.11 -18.31 105.17 -17.68 101.24 C-16.39 93.1 -15.08 84.97 -13.78 76.83 C-13.02 72.12 -12.26 67.41 -11.51 62.69 C-10.13 54.11 -8.76 45.52 -7.38 36.94 C-7.27 36.27 -7.16 35.59 -7.05 34.9 C-6.33 30.46 -5.62 26.03 -4.9 21.59 C-4.63 19.93 -4.63 19.93 -4.36 18.23 C-4.19 17.21 -4.03 16.2 -3.86 15.15 C-3.71 14.27 -3.57 13.39 -3.43 12.48 C-3 9.98 -2.51 7.49 -2 5 C-1.34 5 -0.68 5 0 5 C0 3.35 0 1.7 0 0 Z " fill="#F0ECCC" transform="translate(973,530)"/>
<path d="M0 0 C1.1 0.17 2.21 0.35 3.34 0.53 C9.73 1.54 16.1 2.6 22.47 3.67 C26.46 4.32 30.45 4.94 34.44 5.56 C42.12 6.76 49.78 8.05 57.42 9.45 C59.8 9.87 62.19 10.26 64.58 10.62 C69.85 11.42 73.44 12.07 77.25 16.12 C80.1 20.4 80.2 24.11 79.25 29.12 C77.54 32.35 75.66 33.84 72.25 35.12 C66.04 35.52 60.12 34.58 54.09 33.18 C48.36 31.87 42.56 31.05 36.75 30.19 C28.14 28.89 19.58 27.49 11.02 25.89 C7.03 25.2 3.03 24.73 -0.99 24.26 C-2.93 24.03 -2.93 24.03 -4.92 23.79 C-7.51 23.48 -10.1 23.19 -12.69 22.92 C-19.91 22.04 -25.07 20.99 -29.75 15.12 C-31.18 12.26 -31.06 10.31 -30.75 7.12 C-24.28 -5.56 -11.69 -1.9 0 0 Z " fill="#786650" transform="translate(161.75,765.875)"/>
<path d="M0 0 C1.67 0.26 1.67 0.26 3.37 0.53 C11.93 1.88 20.46 3.33 28.94 5.13 C36.9 6.74 44.99 7.56 53.04 8.54 C74.09 11.21 74.09 11.21 78.38 16.38 C80.48 20 80.81 22.94 80.19 27.12 C78.78 30 77.44 31.87 75.19 34.12 C72.6 34.33 70.15 34.4 67.56 34.38 C66.53 34.39 66.53 34.39 65.48 34.4 C61.22 34.38 57.53 33.79 53.39 32.66 C48.9 31.57 44.27 31.17 39.69 30.62 C33.75 29.92 28 29.16 22.23 27.6 C18.05 26.62 13.76 26.25 9.5 25.75 C1.49 24.75 -6.49 23.62 -14.44 22.19 C-15.31 22.04 -16.18 21.9 -17.07 21.75 C-21.96 20.83 -25.25 19.82 -28.81 16.12 C-30.6 12.11 -31.15 10.14 -29.75 5.94 C-22.15 -5.09 -11.54 -1.87 0 0 Z " fill="#796751" transform="translate(165.8125,737.875)"/>
<path d="M0 0 C5.44 0.5 5.44 0.5 11 1 C11 1.66 11 2.32 11 3 C11.66 3 12.32 3 13 3 C11.46 12.79 9.91 22.59 8.36 32.38 C7.43 38.3 6.49 44.22 5.56 50.14 C4.93 54.18 4.29 58.21 3.65 62.24 C3.34 64.2 3.03 66.17 2.73 68.13 C2.29 70.9 1.86 73.66 1.42 76.42 C1.29 77.24 1.16 78.07 1.03 78.92 C0.53 82.05 0 84.99 -1 88 C-2.81 87.86 -4.63 87.71 -6.44 87.56 C-7.95 87.44 -7.95 87.44 -9.5 87.32 C-12 87 -12 87 -13 86 C-12.86 76.26 -11.12 66.62 -9.53 57.03 C-9.29 55.54 -9.05 54.04 -8.8 52.55 C-8.17 48.66 -7.53 44.77 -6.89 40.88 C-6.37 37.7 -5.85 34.52 -5.33 31.34 C-4.71 27.53 -4.09 23.72 -3.47 19.91 C-3.35 19.19 -3.23 18.47 -3.11 17.72 C-2.78 15.68 -2.44 13.64 -2.11 11.6 C-1.92 10.45 -1.73 9.29 -1.53 8.1 C-1.07 5.39 -0.54 2.69 0 0 Z " fill="#F8C734" transform="translate(201,650)"/>
<path d="M0 0 C3.62 3 5.64 6.18 6.55 10.8 C6.78 15.57 6.63 18.15 3.75 22.06 C-0.86 25.31 -3.23 26.28 -8.94 25.69 C-9.96 25.59 -10.98 25.49 -12.03 25.39 C-14.72 25.04 -17.35 24.57 -20 24 C-21.69 17.76 -20.94 10.81 -18 5.03 C-13.59 -0.89 -6.77 -2.22 0 0 Z " fill="#F8C734" transform="translate(241,624)"/>
<path d="M0 0 C3.66 3.07 5.93 6.36 6.63 11.08 C6.77 16.54 5.71 21.68 4.31 26.94 C-4.47 26.21 -12.15 25.32 -18.69 18.94 C-20.27 14.19 -20.24 10.37 -18.44 5.69 C-14.23 -0.93 -7.39 -2.92 0 0 Z " fill="#F8C734" transform="translate(192.6875,617.0625)"/>
<path d="M0 0 C8.76 0.35 17.34 1.57 26 2.94 C27.65 3.19 27.65 3.19 29.33 3.45 C30.37 3.62 31.42 3.79 32.5 3.96 C33.44 4.12 34.38 4.27 35.34 4.42 C38.06 5.01 40.46 5.9 43 7 C41.6 11.89 39.06 14.05 35 17 C28.51 20.18 20.59 20.1 13.75 18 C1.94 9.41 1.94 9.41 0 3 C0 2.01 0 1.02 0 0 Z " fill="#F1EDCD" transform="translate(162,796)"/>
<path d="M0 0 C1.89 0.12 1.89 0.12 4 1 C5.48 3.29 5.48 3.29 6.75 6.06 C7.18 6.98 7.61 7.9 8.05 8.85 C8.36 9.56 8.68 10.27 9 11 C5 11 5 11 2.31 8.81 C0 6 -0.8 4.58 -1 1 C-0.67 0.67 -0.34 0.34 0 0 Z " fill="#000100" transform="translate(291,698)"/>
<path d="M0 0 C1.63 0.23 3.25 0.48 4.88 0.75 C6.23 0.96 6.23 0.96 7.62 1.17 C10 2 10 2 11.32 4.08 C11.54 4.71 11.77 5.35 12 6 C7.48 7.37 4.39 6.58 0 5 C-0.66 4.34 -1.32 3.68 -2 3 C-1.34 2.01 -0.68 1.02 0 0 Z " fill="#000100" transform="translate(343,613)"/>
<path d="M0 0 C1.83 0.21 1.83 0.21 4 1 C5.48 3.07 5.48 3.07 6.75 5.56 C7.18 6.39 7.61 7.22 8.05 8.07 C8.36 8.7 8.68 9.34 9 10 C8.34 10.66 7.68 11.32 7 12 C3.52 10.12 0.88 8.55 -1 5 C-0.69 2.25 -0.69 2.25 0 0 Z " fill="#000100" transform="translate(134,482)"/>
<path d="M0 0 C1.44 -0.03 2.87 -0.05 4.31 -0.06 C5.51 -0.08 5.51 -0.08 6.74 -0.1 C9 0 9 0 12 1 C12.69 3.06 12.69 3.06 13 5 C9.95 5.96 7.96 6 4.88 5.19 C3.85 4.93 3.85 4.93 2.8 4.67 C1 4 1 4 -1 2 C-0.67 1.34 -0.34 0.68 0 0 Z " fill="#000100" transform="translate(78,572)"/>
<path d="M0 0 C0.66 0 1.32 0 2 0 C3.52 3.03 3.17 5.65 3 9 C2 11.94 2 11.94 1 14 C-0.32 13.34 -1.64 12.68 -3 12 C-2.89 10.56 -2.76 9.12 -2.62 7.69 C-2.56 6.89 -2.49 6.09 -2.41 5.26 C-2 3 -2 3 0 0 Z " fill="#000100" transform="translate(237,457)"/>
<path d="M0 0 C0.33 1.65 0.66 3.3 1 5 C-0.07 5.87 -1.16 6.72 -2.25 7.56 C-2.85 8.04 -3.46 8.51 -4.08 9 C-6 10 -6 10 -8.23 9.65 C-8.82 9.44 -9.4 9.22 -10 9 C-10 8.01 -10 7.02 -10 6 C-8.32 4.39 -8.32 4.39 -6.12 2.81 C-5.05 2.02 -5.05 2.02 -3.95 1.21 C-2 0 -2 0 0 0 Z " fill="#000100" transform="translate(329,512)"/>
<path d="M0 0 C0.33 0.66 0.66 1.32 1 2 C1.66 2 2.32 2 3 2 C1.5 6.21 -1.29 7.74 -5 10 C-6.32 9.34 -7.64 8.68 -9 8 C-6.35 4.37 -3.98 2.1 0 0 Z " fill="#000100" transform="translate(111,669)"/>
<path d="M0 0 C3.46 -0.03 6.92 -0.05 10.38 -0.06 C11.36 -0.07 12.34 -0.08 13.36 -0.09 C14.77 -0.09 14.77 -0.09 16.21 -0.1 C17.51 -0.11 17.51 -0.11 18.85 -0.11 C21 0 21 0 23 1 C23 1.66 23 2.32 23 3 C14.96 3.17 7.01 2.65 -1 2 C-0.67 1.34 -0.34 0.68 0 0 Z " fill="#A2A08D" transform="translate(165,875)"/>
<path d="M0 0 C7.59 0 15.18 0 23 0 C23.33 0.66 23.66 1.32 24 2 C21.31 2.2 18.63 2.38 15.94 2.56 C15.19 2.62 14.43 2.67 13.66 2.73 C8.92 3.04 4.67 2.84 0 2 C0 1.34 0 0.68 0 0 Z " fill="#B3B19C" transform="translate(601,860)"/>
<path d="M0 0 C2 1 2 1 4 4 C0.43 6.49 -2.9 8.52 -7 10 C-7.99 10.5 -7.99 10.5 -9 11 C-7.59 7.78 -5.9 5.68 -3.38 3.25 C-2.74 2.64 -2.11 2.02 -1.46 1.39 C-0.74 0.7 -0.74 0.7 0 0 Z M-10 11 C-9.34 11.66 -8.68 12.32 -8 13 C-8.99 13.5 -8.99 13.5 -10 14 C-10 13.01 -10 12.02 -10 11 Z " fill="#D9D5B8" transform="translate(927,425)"/>
<path d="M0 0 C2.79 -0.05 5.58 -0.09 8.38 -0.12 C9.17 -0.14 9.96 -0.16 10.78 -0.18 C12.85 -0.19 14.93 -0.1 17 0 C17.66 0.66 18.32 1.32 19 2 C12.42 2.95 6.58 2.89 0 2 C0 1.34 0 0.68 0 0 Z " fill="#9D9B88" transform="translate(1119,860)"/>
<path d="M0 0 C0.66 0.33 1.32 0.66 2 1 C0.02 1.99 0.02 1.99 -2 3 C-1.34 2.01 -0.68 1.02 0 0 Z M-4 4 C-3.67 4.99 -3.34 5.98 -3 7 C-2.34 7.33 -1.68 7.66 -1 8 C-1.99 8.33 -2.98 8.66 -4 9 C-4.73 11.02 -4.73 11.02 -5 13 C-6.32 12.34 -7.64 11.68 -9 11 C-7.71 8.12 -6.34 6.13 -4 4 Z " fill="#C7C2A7" transform="translate(39,523)"/>
<path d="M0 0 C0.33 0 0.66 0 1 0 C1 10.56 1 21.12 1 32 C0.67 32 0.34 32 0 32 C0 21.44 0 10.88 0 0 Z " fill="#000100" transform="translate(1260,694)"/>
<path d="M0 0 C0.33 0 0.66 0 1 0 C1 9.57 1 19.14 1 29 C0.67 29 0.34 29 0 29 C0 19.43 0 9.86 0 0 Z " fill="#000100" transform="translate(1260,539)"/>
<path d="M0 0 C1.93 0.02 1.93 0.02 3.9 0.04 C5.19 0.04 6.48 0.05 7.81 0.06 C8.81 0.07 9.81 0.09 10.84 0.1 C11.17 0.76 11.5 1.42 11.84 2.1 C9.55 2.32 7.26 2.52 4.96 2.72 C3.05 2.9 3.05 2.9 1.1 3.07 C0.02 3.08 -1.05 3.09 -2.16 3.1 C-2.82 2.44 -3.48 1.78 -4.16 1.1 C-3.16 0.1 -3.16 0.1 0 0 Z " fill="#B0AE99" transform="translate(921.16015625,859.90234375)"/>
<path d="M0 0 C1.44 -0.08 2.87 -0.14 4.31 -0.19 C5.51 -0.24 5.51 -0.24 6.74 -0.29 C9 0 9 0 12 3 C8.37 3 4.74 3 1 3 C0.67 2.01 0.34 1.02 0 0 Z " fill="#B3B19C" transform="translate(772,860)"/>
<path d="M0 0 C6.93 0 13.86 0 21 0 C21 0.33 21 0.66 21 1 C14.07 1 7.14 1 0 1 C0 0.67 0 0.34 0 0 Z " fill="#000100" transform="translate(1123,865)"/>
<path d="M0 0 C5.61 0 11.22 0 17 0 C17 0.33 17 0.66 17 1 C11.39 1 5.78 1 0 1 C0 0.67 0 0.34 0 0 Z " fill="#000100" transform="translate(175,880)"/>
<path d="M0 0 C5.61 0 11.22 0 17 0 C17 0.33 17 0.66 17 1 C11.39 1 5.78 1 0 1 C0 0.67 0 0.34 0 0 Z " fill="#F1EDCD" transform="translate(519,412)"/>
<path d="M0 0 C2.64 0 5.28 0 8 0 C8 0.33 8 0.66 8 1 C5.36 1 2.72 1 0 1 C0 0.67 0 0.34 0 0 Z " fill="#000100" transform="translate(346,755)"/>
<path d="M0 0 C2.64 0 5.28 0 8 0 C8 0.33 8 0.66 8 1 C5.36 1 2.72 1 0 1 C0 0.67 0 0.34 0 0 Z " fill="#F1EDCD" transform="translate(777,412)"/>
<path d="M0 0 C1.65 0 3.3 0 5 0 C5 0.33 5 0.66 5 1 C3.35 1 1.7 1 0 1 C0 0.67 0 0.34 0 0 Z " fill="#F1EDCD" transform="translate(511,412)"/>
<path d="" fill="#000100" transform="translate(0,0)"/>
<path d="" fill="#F1EDCD" transform="translate(0,0)"/>
<path d="M0 0 C2 1 2 1 2 1 Z " fill="#000100" transform="translate(219,875)"/>
<path d="M0 0 C2 1 2 1 2 1 Z " fill="#000100" transform="translate(644,860)"/>
<path d="" fill="#000100" transform="translate(0,0)"/>
<path d="" fill="#000100" transform="translate(0,0)"/>
<path d="" fill="#F1EDCD" transform="translate(0,0)"/>
<path d="" fill="#000100" transform="translate(0,0)"/>
<path d="M0 0 C2 1 2 1 2 1 Z " fill="#F1EDCD" transform="translate(594,412)"/>
<path d="M0 0 C2 1 2 1 2 1 Z " fill="#F1EDCD" transform="translate(541,412)"/>
<path d="M0 0 C2 1 2 1 2 1 Z " fill="#F1EDCD" transform="translate(538,412)"/>
<path d="" fill="#000100" transform="translate(0,0)"/>
<path d="" fill="#000100" transform="translate(0,0)"/>
<path d="" fill="#000100" transform="translate(0,0)"/>
<path d="" fill="#000100" transform="translate(0,0)"/>
<path d="" fill="#000100" transform="translate(0,0)"/>
<path d="" fill="#000100" transform="translate(0,0)"/>
<path d="" fill="#000100" transform="translate(0,0)"/>
<path d="" fill="#000100" transform="translate(0,0)"/>
<path d="" fill="#000100" transform="translate(0,0)"/>
<path d="" fill="#000100" transform="translate(0,0)"/>
<path d="" fill="#000100" transform="translate(0,0)"/>
<path d="" fill="#F1EDCD" transform="translate(0,0)"/>
<path d="" fill="#786650" transform="translate(0,0)"/>
<path d="" fill="#F1EDCD" transform="translate(0,0)"/>
<path d="" fill="#F1EDCD" transform="translate(0,0)"/>
<path d="" fill="#786650" transform="translate(0,0)"/>
<path d="" fill="#786650" transform="translate(0,0)"/>
<path d="" fill="#786650" transform="translate(0,0)"/>
<path d="" fill="#000100" transform="translate(0,0)"/>
<path d="" fill="#786650" transform="translate(0,0)"/>
<path d="" fill="#000100" transform="translate(0,0)"/>
<path d="" fill="#786650" transform="translate(0,0)"/>
<path d="" fill="#F1EDCD" transform="translate(0,0)"/>
<path d="" fill="#B3B19C" transform="translate(0,0)"/>
<path d="" fill="#000100" transform="translate(0,0)"/>
<path d="" fill="#F1EDCD" transform="translate(0,0)"/>
<path d="" fill="#786650" transform="translate(0,0)"/>
<path d="" fill="#F1EDCD" transform="translate(0,0)"/>
<path d="" fill="#000100" transform="translate(0,0)"/>
<path d="" fill="#F1EDCD" transform="translate(0,0)"/>
<path d="" fill="#F1EDCD" transform="translate(0,0)"/>
<path d="" fill="#F1EDCD" transform="translate(0,0)"/>
<path d="" fill="#F1EDCD" transform="translate(0,0)"/>
<path d="" fill="#000100" transform="translate(0,0)"/>
<path d="" fill="#F1EDCD" transform="translate(0,0)"/>
<path d="" fill="#F1EDCD" transform="translate(0,0)"/>
<path d="" fill="#F1EDCD" transform="translate(0,0)"/>
<path d="" fill="#F1EDCD" transform="translate(0,0)"/>
<path d="" fill="#F1EDCD" transform="translate(0,0)"/>
<path d="" fill="#F1EDCD" transform="translate(0,0)"/>
<path d="" fill="#F1EDCD" transform="translate(0,0)"/>
<path d="" fill="#F1EDCD" transform="translate(0,0)"/>
<path d="" fill="#000100" transform="translate(0,0)"/>
</svg>
