<?xml version="1.0" standalone="no"?>
<!DOCTYPE svg PUBLIC "-//W3C//DTD SVG 20010904//EN"
 "http://www.w3.org/TR/2001/REC-SVG-20010904/DTD/svg10.dtd">
<svg version="1.0" xmlns="http://www.w3.org/2000/svg"
 width="500.000000pt" height="500.000000pt" viewBox="0 0 500.000000 500.000000"
 preserveAspectRatio="xMidYMid meet">

<g transform="translate(0.000000,500.000000) scale(0.100000,-0.100000)"
fill="#000000" stroke="none">
<path d="M2739 2757 c0 -146 -3 -178 -12 -162 -7 11 -28 36 -49 56 -82 81
-247 72 -318 -18 -21 -26 -22 -27 -32 -8 -61 108 -243 110 -319 4 l-21 -30
-17 33 c-35 71 -147 97 -213 48 -28 -21 -28 -21 -28 0 0 18 -6 20 -60 20 l-60
0 0 -175 0 -175 60 0 60 0 0 110 c0 104 1 112 25 135 13 14 34 25 45 25 11 0
32 -11 45 -25 24 -23 25 -31 25 -135 l0 -110 55 0 55 0 1 43 c1 23 1 46 0 51
-1 5 18 -12 43 -37 50 -52 106 -72 173 -63 54 7 119 40 133 67 11 20 12 19 50
-14 81 -74 228 -73 300 2 19 20 40 45 47 56 10 17 12 10 12 -42 l1 -63 55 0
55 0 0 72 0 72 73 -72 72 -72 75 0 75 0 -90 90 -90 90 85 85 85 85 -81 0 -80
0 -59 -60 -60 -61 -5 177 -5 177 -52 3 -53 2 -1 -181z m-519 -147 c30 -30 17
-40 -56 -40 -68 0 -78 8 -47 42 22 25 77 24 103 -2z m365 -25 c52 -51 16 -145
-55 -145 -44 0 -80 39 -80 85 0 46 36 85 80 85 19 0 40 -9 55 -25z m-254 -109
c5 -17 7 -32 5 -33 -2 -2 -20 4 -40 13 -34 17 -37 17 -55 -1 -44 -39 -141 -14
-141 37 0 17 8 18 112 16 l112 -3 7 -29z"/>
<path d="M3258 2473 c-37 -42 -28 -101 19 -122 34 -16 47 -14 77 10 32 25 37
86 8 112 -25 22 -85 22 -104 0z"/>
</g>
</svg>
